<?xml version="1.0" encoding="UTF-8" standalone="no"?>
<!DOCTYPE svg PUBLIC "-//W3C//DTD SVG 1.1//EN"
 "http://www.w3.org/Graphics/SVG/1.1/DTD/svg11.dtd">
<!-- Generated by graphviz version 13.1.2 (20250808.2320)
 -->
<!-- Title: main Pages: 1 -->
<svg width="198pt" height="104pt"
 viewBox="0.00 0.00 198.00 104.00" xmlns="http://www.w3.org/2000/svg" xmlns:xlink="http://www.w3.org/1999/xlink">

<svg id="main" version="1.1" xmlns="http://www.w3.org/2000/svg" xmlns:xlink="http://www.w3.org/1999/xlink" xml:space="preserve">

<style type="text/css"><![CDATA[
.node, .edge {opacity: 0.7;}
.node.selected, .edge.selected {opacity: 1;}
.edge:hover path { stroke: red; }
.edge:hover polygon { stroke: red; fill: red; }
]]></style>
<script type="application/ecmascript" xlink:href="svg.min.js"/>
<svg id="graph" class="graph">
<g id="graph0" class="graph" transform="scale(1 1) rotate(0) translate(4 100)">
<title>main</title>
<!-- Node1 -->
<g id="Node000001" class="node">
<title>Node1</title>
<g id="a_Node000001"><a xlink:title="Função principal.">
<polygon fill="#999999" stroke="#666666" points="37,-58 0,-58 0,-38 37,-38 37,-58"/>
<text xml:space="preserve" text-anchor="middle" x="18.5" y="-44.5" font-family="Helvetica,sans-Serif" font-size="10.00">main</text>
</a>
</g>
</g>
<!-- Node2 -->
<g id="Node000002" class="node">
<title>Node2</title>
<g id="a_Node000002"><a xlink:href="class_leitura_som.html#af25bba3d8fccbc926d71bd604e797c6d" target="_top" xlink:title="Retorna o último valor bruto lido do ADC.">
<polygon fill="white" stroke="#666666" points="188.38,-96 74.12,-96 74.12,-76 188.38,-76 188.38,-96"/>
<text xml:space="preserve" text-anchor="middle" x="131.25" y="-82.5" font-family="Helvetica,sans-Serif" font-size="10.00">LeituraSom::getLeitura</text>
</a>
</g>
</g>
<!-- Node1&#45;&gt;Node2 -->
<g id="edge1_Node000001_Node000002" class="edge">
<title>Node1&#45;&gt;Node2</title>
<g id="a_edge1_Node000001_Node000002"><a xlink:title=" ">
<path fill="none" stroke="#63b8ff" d="M37.3,-54.43C47.69,-58.15 61.07,-62.9 73,-67 77.75,-68.63 82.73,-70.32 87.69,-71.99"/>
<polygon fill="#63b8ff" stroke="#63b8ff" points="86.38,-75.24 96.98,-75.09 88.6,-68.6 86.38,-75.24"/>
</a>
</g>
</g>
<!-- Node3 -->
<g id="Node000003" class="node">
<title>Node3</title>
<g id="a_Node000003"><a xlink:href="class_leitura_som.html#a93f7be63c6cc2210bf5bb335c8a3affe" target="_top" xlink:title="Converte a última leitura para tensão (em Volts).">
<polygon fill="white" stroke="#666666" points="189.5,-58 73,-58 73,-38 189.5,-38 189.5,-58"/>
<text xml:space="preserve" text-anchor="middle" x="131.25" y="-44.5" font-family="Helvetica,sans-Serif" font-size="10.00">LeituraSom::getTensao</text>
</a>
</g>
</g>
<!-- Node1&#45;&gt;Node3 -->
<g id="edge2_Node000001_Node000003" class="edge">
<title>Node1&#45;&gt;Node3</title>
<g id="a_edge2_Node000001_Node000003"><a xlink:title=" ">
<path fill="none" stroke="#63b8ff" d="M37.29,-48C44.17,-48 52.52,-48 61.35,-48"/>
<polygon fill="#63b8ff" stroke="#63b8ff" points="61.21,-51.5 71.21,-48 61.21,-44.5 61.21,-51.5"/>
</a>
</g>
</g>
<!-- Node4 -->
<g id="Node000004" class="node">
<title>Node4</title>
<g id="a_Node000004"><a xlink:href="class_leitura_som.html#ad32cf0779c3c43d882389486417b0c6f" target="_top" xlink:title="Realiza a leitura do valor bruto do ADC.">
<polygon fill="white" stroke="#666666" points="172.25,-20 90.25,-20 90.25,0 172.25,0 172.25,-20"/>
<text xml:space="preserve" text-anchor="middle" x="131.25" y="-6.5" font-family="Helvetica,sans-Serif" font-size="10.00">LeituraSom::ler</text>
</a>
</g>
</g>
<!-- Node1&#45;&gt;Node4 -->
<g id="edge3_Node000001_Node000004" class="edge">
<title>Node1&#45;&gt;Node4</title>
<g id="a_edge3_Node000001_Node000004"><a xlink:title=" ">
<path fill="none" stroke="#63b8ff" d="M37.3,-41.57C47.69,-37.85 61.07,-33.1 73,-29 77.75,-27.37 82.73,-25.68 87.69,-24.01"/>
<polygon fill="#63b8ff" stroke="#63b8ff" points="88.6,-27.4 96.98,-20.91 86.38,-20.76 88.6,-27.4"/>
</a>
</g>
</g>
</g>
</svg>
</svg>

<style type='text/css'>
<![CDATA[
[data-mouse-over-selected='false'] { opacity: 0.7; }
[data-mouse-over-selected='true']  { opacity: 1.0; }
]]>
</style>
<script type="application/ecmascript"><![CDATA[
document.addEventListener('DOMContentLoaded', (event) => {
  highlightEdges();
  highlightAdjacentNodes();
});
]]></script>
</svg>
